<svg xmlns="http://www.w3.org/2000/svg" xmlns:xlink="http://www.w3.org/1999/xlink" viewBox="0 0 655.68 193.37"><defs><style>.cls-1{fill:#1a1a1a;filter:url(#luminosity-noclip);}.cls-2{fill:#73d0ff;}.cls-3{fill:#e6e6e6;}.cls-4{mask:url(#mask);}.cls-5{fill:url(#linear-gradient);}.cls-6{stroke:#f2f2f2;stroke-width:6.22px;fill:url(#linear-gradient-2);}.cls-6,.cls-7,.cls-8{stroke-miterlimit:10;}.cls-7,.cls-8{stroke-width:6.07px;stroke:url(#linear-gradient-4);}.cls-7{fill:url(#linear-gradient-3);}.cls-8{fill:none;}.cls-9{fill:#333;}.cls-10{fill:#666;}.cls-11{fill:url(#linear-gradient-6);}.cls-12{fill:url(#linear-gradient-7);}.cls-13{fill:url(#linear-gradient-8);}</style><filter id="luminosity-noclip" x="21.5" y="21.41" width="96.94" height="90.4" filterUnits="userSpaceOnUse" color-interpolation-filters="sRGB"><feFlood flood-color="#fff" result="bg"/><feBlend in="SourceGraphic" in2="bg"/></filter><mask id="mask" x="21.5" y="21.41" width="96.94" height="90.4" maskUnits="userSpaceOnUse"><path class="cls-1" d="M79.26,49.91a13.53,13.53,0,0,0-1.81-.14c-8,0-14.54,7.27-14.54,16.23s6.51,16.22,14.54,16.22a13.53,13.53,0,0,0,1.81-.14C85,79.54,89.07,73.31,89.07,66S85,52.45,79.26,49.91Z"/></mask><linearGradient id="linear-gradient" x1="65.85" y1="54.44" x2="90.52" y2="97.17" gradientUnits="userSpaceOnUse"><stop offset="0" stop-color="#f2f2f2"/><stop offset="0.14" stop-color="#e6e6e6"/><stop offset="0.39" stop-color="#c7c7c7"/><stop offset="0.73" stop-color="#949494"/><stop offset="1" stop-color="#666"/></linearGradient><linearGradient id="linear-gradient-2" x1="58.83" y1="77.1" x2="87.24" y2="39.22" gradientUnits="userSpaceOnUse"><stop offset="0" stop-color="#fff"/><stop offset="0.21" stop-color="#c8c8c8"/><stop offset="0.47" stop-color="gray"/></linearGradient><linearGradient id="linear-gradient-3" x1="70.91" y1="47.36" x2="70.91" y2="85.86" gradientUnits="userSpaceOnUse"><stop offset="0.22" stop-color="#73d0ff"/><stop offset="0.42" stop-color="#5da4c8"/><stop offset="0.88" stop-color="#28363e"/><stop offset="1" stop-color="#1a1a1a"/></linearGradient><linearGradient id="linear-gradient-4" x1="70.91" y1="44.32" x2="70.91" y2="88.89" gradientUnits="userSpaceOnUse"><stop offset="0" stop-color="#4d4d4d"/><stop offset="0.18" stop-color="#4e4f50"/><stop offset="0.33" stop-color="#50575a"/><stop offset="0.47" stop-color="#54646c"/><stop offset="0.61" stop-color="#597584"/><stop offset="0.74" stop-color="#5f8ca3"/><stop offset="0.86" stop-color="#68a9ca"/><stop offset="0.98" stop-color="#71c9f6"/><stop offset="1" stop-color="#73d0ff"/></linearGradient><linearGradient id="linear-gradient-6" x1="48.44" y1="96.05" x2="48.44" y2="74.93" gradientUnits="userSpaceOnUse"><stop offset="0.22" stop-color="#f2f2f2"/><stop offset="0.53" stop-color="#bbb"/><stop offset="0.58" stop-color="#b3b3b3"/><stop offset="1" stop-color="#73d0ff"/></linearGradient><linearGradient id="linear-gradient-7" x1="24.99" y1="114.44" x2="58.51" y2="80.92" gradientUnits="userSpaceOnUse"><stop offset="0" stop-color="#4d4d4d"/><stop offset="0.17" stop-color="#575757"/><stop offset="0.45" stop-color="#717171"/><stop offset="0.82" stop-color="#9b9b9b"/><stop offset="1" stop-color="#b3b3b3"/></linearGradient><linearGradient id="linear-gradient-8" x1="72.81" y1="2404.46" x2="81.3" y2="2395.97" gradientTransform="matrix(1, -1.68, 0, 1, 0, -2180.86)" gradientUnits="userSpaceOnUse"><stop offset="0.17" stop-color="#ccc"/><stop offset="1" stop-color="#4d4d4d"/></linearGradient></defs><title>Asset 1</title><g id="Layer_2" data-name="Layer 2"><g id="Layer_1-2" data-name="Layer 1"><path class="cls-2" d="M54,11.05A59.53,59.53,0,0,1,68.36,9.3c13,0,24.42,2.6,33.57,9.85V7.07C92.78,4.1,82.48.56,67.8.56a70.38,70.38,0,0,0-19,2.6Z"/><path class="cls-2" d="M68.14,123.62C35.8,123.62,9.91,98,9.91,66.37A56.09,56.09,0,0,1,20.43,33.73l-5.57-8.6A64.49,64.49,0,0,0,0,66.37c0,36.24,29.65,65.8,67.57,65.8a92.73,92.73,0,0,0,35.23-7.07V113.21C95.4,120.46,82.45,123.62,68.14,123.62Z"/><path class="cls-3" d="M24.5,16.74c.93-.61,1.89-1.26,2.29-1.56l.65,1c-.43.25-1.43.86-2.35,1.46l-.94.61c.31.51.76,1.19,1.12,1.74L28,24.13c.6.91,1.31,2,1.62,2.36l-1.19.78c-.24-.44-.93-1.52-1.52-2.43L24.17,20.7c-.36-.55-.82-1.23-1.17-1.7l-.92.6c-.91.6-1.86,1.25-2.25,1.55l-.65-1c.43-.24,1.4-.86,2.31-1.45Z"/><path class="cls-3" d="M31.51,17.56l5-3.28-.91-1.39c-.5-.76-1.2-1.83-1.61-2.37l1.18-.77c.35.61,1,1.7,1.51,2.43L39.86,17c.45.69,1,1.53,1.31,1.89L40,19.69c-.21-.39-.76-1.26-1.22-2L37.1,15.18l-5,3.27L33.77,21c.45.69,1,1.53,1.31,1.89l-1.17.77c-.22-.39-.77-1.26-1.23-2l-3.16-4.83c-.62-.95-1.34-2-1.61-2.37l1.18-.77c.21.37.89,1.48,1.51,2.43Z"/><path class="cls-3" d="M39,8.51,41,11.43l1-.7c.91-.59,1.67-1.1,2.06-1.4l.65,1c-.43.24-1.2.73-2.11,1.32l-1.06.69,2.31,3.54L45,15.1c.92-.61,1.85-1.23,2.23-1.52l.65,1c-.42.23-1.36.83-2.29,1.44l-2.31,1.51c-.46-.75-1.12-1.83-1.51-2.43L38.93,10.7c-.61-.92-1.33-2-1.62-2.34l2.21-1.45c.92-.6,1.83-1.23,2.23-1.53l.65,1C42,6.61,41,7.2,40.11,7.81Z"/><g class="cls-4"><path class="cls-5" d="M118.44,66.27c0,23.87-20.49,43.21-45.76,43.21S26.92,90.14,26.92,66.27s20.48-43.2,45.76-43.2S118.44,42.41,118.44,66.27Z"/><path class="cls-6" d="M108.79,66.61A42.09,42.09,0,1,1,66.7,24.52,42.1,42.1,0,0,1,108.79,66.61Z"/><path class="cls-7" d="M90.16,66.61A19.26,19.26,0,1,1,70.91,47.36,19.25,19.25,0,0,1,90.16,66.61Z"/></g><path class="cls-8" d="M90.16,66.61A19.26,19.26,0,1,1,70.91,47.36,19.25,19.25,0,0,1,90.16,66.61Z"/><path class="cls-9" d="M64.81,106a2.09,2.09,0,0,1-2.15,2l-38.92-.89a2.09,2.09,0,0,1-2-2.15l.1-4.21a2.09,2.09,0,0,1,2.15-2l38.91.89a2.1,2.1,0,0,1,2.06,2.15Z"/><path class="cls-10" d="M75.35,90.09c0,1.16-.46,2.1-.77,2.1L63.8,107.62c-.3,0-1.09-.94-1.09-2.1v-4.21c0-1.17.62-2.11.93-2.11L74.39,83.77c.31,0,1,.94,1,2.11Z"/><path class="cls-11" d="M72.29,95.28c0,.45-.94.77-2.11.77L12.67,95c-1.16,0-2.1-.31-2.1-.76L54.75,75a11.81,11.81,0,0,1,2.11,0H84.21c1.17,0,1.34,0,2.11,0Z"/><path class="cls-12" d="M72.29,100.9c0,.39,0,.76-.35.76L11.38,100.6c-.39,0-.54-.31-.54-.7V94.64c0-.38.15-.7.54-.7l60.93,1a.67.67,0,0,1,.66.71Z"/><path class="cls-13" d="M86.1,76.46l-14,25.1c-.07.11-1.14.26-1.14-.12V95c0-.22.9-.89,1-1L86.22,75"/><path class="cls-2" d="M218,130.07c-2-5.94-5.2-13.73-9.28-23.38l-11-26H147.29l-10.57,25.8c-4.64,11.13-7.61,18.74-8.91,23.56H115.94c4.26-8,8.72-18,13-28.2L171.6.56h3l42.86,101.31c4.45,10.2,9.28,20.59,13.36,28.2Zm-45.46-111-21.9,53.63h43.79Z"/><path class="cls-2" d="M257.32,130.07H246.74c.37-5.19.56-17.07.56-26.9V35.63c0-11.14-.19-25.61-.56-35.63h2.41c4.46,6.12,7.24,9.46,13.55,17.07l74.22,92V36.18c0-10.57-.19-25.42-.56-33.21h10.58c-.37,8.16-.56,23-.56,33.21v69.95c0,7.8,0,15.4.56,26.17h-2.41c-4.27-5.94-6.68-8.91-12.62-16.15L257,23l-.37,80.34C256.58,113,257,124.88,257.32,130.07Z"/><path class="cls-2" d="M439.34,123.58c14.28,0,26.35-3.16,34.88-10.39v11.87c-11,4.08-22.08,7.05-35.44,7.05-37.85,0-67.73-29.5-67.73-65.68S400.93.74,438.78.74c14.66,0,24.49,3.53,34.14,6.5V19.3c-9.09-7.24-20.59-9.84-33.58-9.84-32.29,0-58.27,25.42-58.27,57S407.05,123.58,439.34,123.58Z"/><path class="cls-2" d="M504.28,11V57.33H520.6c12.62,0,22.46-.18,28.21-.55v9.28c-5.75-.38-15.59-.56-28.21-.56H504.28v56.41h17.44c12.8,0,25.6-.19,31.17-.56v9.28c-5.57-.37-18.37-.56-31.17-.56h-28c.37-10.2.74-24.86.74-33.21V36c0-12.81-.37-27.47-.74-33h26.53c12.81,0,25.42-.19,31.18-.56v9.28C545.65,11.13,533,11,520.23,11Z"/><path class="cls-2" d="M584.25,98.34c0,12.62,0,26,.55,31.73H573.86c.37-5.75.74-19.11.74-31.73V36.18c0-12.62-.37-27.65-.74-33.21h21.33c27.09,0,41.75,15.21,41.75,36,0,19.66-12.24,30.24-25.05,34.14,13.18,16.88,29.88,43.41,43.79,57H641.77c-11.32-15-26.35-35.44-38.6-55.11a45.27,45.27,0,0,1-7,.56H584.25Zm0-30.43h12.8c17.07,0,29.87-11.32,29.87-28.76,0-14.84-10.39-28.39-32.1-28.39H584.25Z"/><path class="cls-3" d="M21.84,181.06c0,4.2.12,9.15.24,11.07h-5.5c.12-1.92.25-6.87.25-11.07V160.83c0-4.2-.13-9.21-.25-11.07h5.5c-.12,1.86-.24,6.87-.24,11.07Z"/><path class="cls-3" d="M85.11,182.23a97,97,0,0,0,1.49,9.9H80.72c0-2-.19-4.27-.56-8.41l-2.1-22.64L64.2,192.69H63L49.3,161.14l-2.72,22.08c-.44,3.65-.75,6.56-.81,8.91H40.39c.43-2,1.11-6.68,1.73-11.2l4.46-32h1.3l16,35.31L80.1,149h1.42Z"/><path class="cls-3" d="M132.3,192.13c-.62-1.79-1.61-4.21-2.78-7l-3.1-7.36H110.28l-3,7.24c-1.36,3.27-2.23,5.44-2.72,7.11H98.84c1.42-2.66,3-5.94,4.45-9.4L117.89,149h1.42l14.78,33.77c1.55,3.46,3.22,6.86,4.64,9.4Zm-14-34.08L112,173.64h12.74Z"/><path class="cls-3" d="M179.68,190.77a31.66,31.66,0,0,1-11.57,2.1c-13.36,0-22.76-9.83-22.76-22S154.63,149,168,149a28.87,28.87,0,0,1,10.88,2v5.81c-3-2.53-6.49-3.4-10.7-3.4a17.54,17.54,0,1,0-.06,35.07c2.78,0,5.32-.37,6.74-1.24v-7c0-4.33-.12-5.93-.24-7.79h5.31c-.12,1.86-.24,3.59-.24,7.79Z"/><path class="cls-3" d="M199.53,181.06c0,4.2.12,9.15.24,11.07h-5.5c.12-1.92.25-6.87.25-11.07V160.83c0-4.2-.13-9.21-.25-11.07h5.5c-.12,1.86-.24,6.87-.24,11.07Z"/><path class="cls-3" d="M225.63,192.13h-5.26c.12-1.73.25-5.69.25-9V160.77c0-3.71-.13-8.6-.25-11.94h1.17c1.86,2.29,3,3.53,5.08,5.88l22.88,27.21V160.83c0-3.52-.12-8.47-.18-11.07h5.19c-.12,2.72-.18,7.67-.18,11.07V183.9c0,2.6,0,5.38.18,9H253.4c-1.55-2-2.6-3.21-4.58-5.5L225.5,159.66l-.12,23.56C225.38,186.44,225.5,190.4,225.63,192.13Z"/><path class="cls-3" d="M307.27,190.77a31.58,31.58,0,0,1-11.57,2.1c-13.36,0-22.76-9.83-22.76-22S282.22,149,295.58,149a28.87,28.87,0,0,1,10.88,2v5.81c-3-2.53-6.49-3.4-10.7-3.4a17.54,17.54,0,1,0-.06,35.07c2.79,0,5.32-.37,6.74-1.24v-7c0-4.33-.12-5.93-.24-7.79h5.32c-.13,1.86-.25,3.59-.25,7.79Z"/><path class="cls-3" d="M379.51,192.13c-.62-1.79-1.61-4.21-2.79-7l-3.09-7.36H357.49l-3,7.24c-1.36,3.27-2.23,5.44-2.72,7.11H346c1.43-2.66,3-5.94,4.46-9.4L365.1,149h1.42l14.78,33.77c1.55,3.46,3.22,6.86,4.64,9.4Zm-14-34.08-6.37,15.59H371.9Z"/><path class="cls-3" d="M405.48,181.43c0,4.21.06,8.78.25,10.7h-5.51c.19-1.92.25-6.49.25-10.7v-20.6c0-4.2-.06-9.21-.25-11.07h8.85c9.4,0,14.53,5.2,14.53,12.37a11.37,11.37,0,0,1-8.35,11.44c4.52,5.57,9.78,13.92,14.66,18.56h-6.86a174,174,0,0,1-12.19-17.69,12,12,0,0,1-2,.12h-3.34Zm0-10.58h4c5.2,0,9-3.46,9-8.6,0-4.39-3.15-8.47-9.59-8.47h-3.4Z"/><path class="cls-3" d="M464.55,188.42c4.45,0,8.41-1,11.19-3.47v5.82a36.14,36.14,0,0,1-11.56,2c-12.87,0-22.64-9.83-22.64-21.9S451.31,149,464.18,149c5,0,7.91,1.17,11.13,1.91v5.94c-2.91-2.41-6.62-3.34-10.82-3.34a17.48,17.48,0,1,0,.06,34.95Z"/><path class="cls-3" d="M498.13,167.26h23.13v-6.43c0-3.52,0-8.47-.18-11.07h5.44c-.12,2.72-.25,7.67-.25,11.07v22.39c0,3.22.13,7.18.25,8.91h-5.44c.12-1.73.18-5.69.18-9V171.41H498.13v11.81c0,3.22.12,7.18.25,8.91h-5.45c.13-1.73.19-5.69.19-9V160.83c0-4.39-.06-9.4-.19-11.07h5.45c-.13,1.67-.25,6.68-.25,11.07Z"/><path class="cls-3" d="M552.43,181.06c0,4.2.13,9.15.25,11.07h-5.5c.12-1.92.24-6.87.24-11.07V160.83c0-4.2-.12-9.21-.24-11.07h5.5c-.12,1.86-.25,6.87-.25,11.07Z"/><path class="cls-3" d="M592.39,183.72l10.88-26.6c1.06-2.72,2.17-5.38,2.79-7.36h5.63c-1.36,2.47-3,6.06-4.4,9.34l-14.65,34.27h-.93L577,159.1a88.85,88.85,0,0,0-4.46-9.34h6.06a76.23,76.23,0,0,0,2.73,7.36Z"/><path class="cls-3" d="M632.65,153.9v13.49h4.89c4.2,0,7.73-.06,9.65-.19v4.58c-1.92-.12-5.45-.19-9.65-.19h-4.89v16.33h5.44c4.27,0,8.6-.06,10.46-.18v4.58c-1.86-.13-6.19-.19-10.46-.19h-10.7c.13-3.4.25-8.29.25-11.07V160.77c0-4.27-.12-9.15-.25-11H637.6c4.27,0,8.53-.12,10.45-.25v4.64c-1.92-.18-6.18-.25-10.45-.25Z"/></g></g></svg>
